<svg height="512pt" viewBox="-32 0 512 512" width="512pt" xmlns="http://www.w3.org/2000/svg"><path d="m293.355469 394.667969c-4.820313 0-9.578125-2.175781-12.738281-6.273438l-69.332032-90.667969c-2.132812-2.792968-3.285156-6.207031-3.285156-9.726562v-122.667969c0-8.832031 7.167969-16 16-16s16 7.167969 16 16v117.25l66.046875 86.355469c5.378906 7.019531 4.011719 17.066406-2.984375 22.421875-2.925781 2.242187-6.335938 3.308594-9.707031 3.308594zm0 0"/><path d="m224 512c-123.519531 0-224-100.480469-224-224s100.480469-224 224-224 224 100.480469 224 224-100.480469 224-224 224zm0-416c-105.878906 0-192 86.144531-192 192s86.121094 192 192 192 192-86.144531 192-192-86.121094-192-192-192zm0 0"/><path d="m298.667969 32h-149.335938c-8.832031 0-16-7.167969-16-16s7.167969-16 16-16h149.335938c8.832031 0 16 7.167969 16 16s-7.167969 16-16 16zm0 0"/><path d="m224 96c-8.832031 0-16-7.167969-16-16v-64c0-8.832031 7.167969-16 16-16s16 7.167969 16 16v64c0 8.832031-7.167969 16-16 16zm0 0"/><path d="m370.988281 157.011719c-4.097656 0-8.195312-1.554688-11.308593-4.691407-6.25-6.25-6.25-16.382812 0-22.636718l50.347656-50.34375c6.269531-6.273438 16.40625-6.230469 22.632812 0 6.25 6.25 6.25 16.382812 0 22.632812l-50.34375 50.347656c-3.160156 3.136719-7.234375 4.691407-11.328125 4.691407zm0 0"/></svg>